<svg width="39" height="40" viewBox="0 0 39 40" fill="none" xmlns="http://www.w3.org/2000/svg">
<path d="M19.6963 10.9199V10.0119V10.9199ZM14.0032 16.6131H13.0951H14.0032ZM27.4052 24.2957L26.6823 24.8453L27.4052 24.2957ZM26.2976 16.6131C26.2976 14.8623 25.6021 13.1833 24.3641 11.9453L23.0799 13.2295C23.9773 14.1269 24.4815 15.344 24.4815 16.6131H26.2976ZM24.3641 11.9453C23.1261 10.7074 21.4471 10.0119 19.6963 10.0119V11.828C20.9654 11.828 22.1825 12.3321 23.0799 13.2295L24.3641 11.9453ZM19.6963 10.0119C17.9456 10.0119 16.2666 10.7074 15.0286 11.9453L16.3128 13.2295C17.2101 12.3321 18.4273 11.828 19.6963 11.828V10.0119ZM15.0286 11.9453C13.7906 13.1833 13.0951 14.8623 13.0951 16.6131L14.9112 16.6131C14.9112 15.344 15.4154 14.1269 16.3128 13.2295L15.0286 11.9453ZM13.0951 16.6131C13.0951 20.7036 11.9727 22.8147 11.2646 23.7462L12.7104 24.8453C13.6826 23.5662 14.9112 21.0591 14.9112 16.6131H13.0951ZM12.3562 26.0609H27.0365V24.2448H12.3562V26.0609ZM28.1281 23.7462C27.42 22.8147 26.2976 20.7036 26.2976 16.6131H24.4815C24.4815 21.0591 25.71 23.5662 26.6823 24.8453L28.1281 23.7462ZM27.0365 26.0609C27.7356 26.0609 28.1298 25.5298 28.2752 25.1811C28.4234 24.8258 28.5014 24.2373 28.1281 23.7462L26.6823 24.8453C26.6008 24.738 26.5845 24.6361 26.5826 24.5861C26.5806 24.5364 26.5901 24.5035 26.5991 24.482C26.6076 24.4617 26.6303 24.4163 26.689 24.3665C26.7528 24.3125 26.8728 24.2448 27.0365 24.2448V26.0609ZM11.2646 23.7462C10.8913 24.2373 10.9693 24.8258 11.1175 25.1811C11.2629 25.5298 11.6571 26.0609 12.3562 26.0609V24.2448C12.5199 24.2448 12.6399 24.3125 12.7037 24.3665C12.7624 24.4163 12.7851 24.4617 12.7936 24.482C12.8026 24.5035 12.8121 24.5364 12.8101 24.5861C12.8082 24.6361 12.7919 24.738 12.7104 24.8453L11.2646 23.7462Z" fill="black"/>
<path d="M21.3377 28.7852C21.1709 29.0727 20.9315 29.3114 20.6434 29.4774C20.3553 29.6433 20.0287 29.7307 19.6962 29.7307C19.3638 29.7307 19.0371 29.6433 18.749 29.4774C18.4609 29.3114 18.2215 29.0727 18.0547 28.7852" stroke="#1B1B1B" stroke-width="1.81609" stroke-linecap="round" stroke-linejoin="round"/>
</svg>
