<svg width="45" height="45" viewBox="0 0 45 45" fill="none" xmlns="http://www.w3.org/2000/svg">
<g filter="url(#filter0_d_2131_3132)">
<circle cx="22.5" cy="20.5" r="17.5" fill="#F0F0F0"/>
</g>
<path d="M25.6774 22.8825C27.3017 21.1682 27.2737 18.4615 25.5936 16.7814C23.8851 15.0729 21.115 15.0729 19.4064 16.7814C17.7263 18.4615 17.6983 21.1682 19.3226 22.8825C19.986 21.8268 21.1611 21.125 22.5 21.125C23.8389 21.125 25.014 21.8268 25.6774 22.8825ZM22.5 27.8299L18.5225 23.8525C16.3258 21.6558 16.3258 18.0942 18.5225 15.8975C20.7192 13.7008 24.2808 13.7008 26.4775 15.8975C28.6742 18.0942 28.6742 21.6558 26.4775 23.8525L22.5 27.8299ZM22.5 20.5C21.4644 20.5 20.625 19.6606 20.625 18.625C20.625 17.5895 21.4644 16.75 22.5 16.75C23.5356 16.75 24.375 17.5895 24.375 18.625C24.375 19.6606 23.5356 20.5 22.5 20.5Z" fill="#A0A0A0"/>
<defs>
<filter id="filter0_d_2131_3132" x="0" y="0" width="45" height="45" filterUnits="userSpaceOnUse" color-interpolation-filters="sRGB">
<feFlood flood-opacity="0" result="BackgroundImageFix"/>
<feColorMatrix in="SourceAlpha" type="matrix" values="0 0 0 0 0 0 0 0 0 0 0 0 0 0 0 0 0 0 127 0" result="hardAlpha"/>
<feMorphology radius="1" operator="dilate" in="SourceAlpha" result="effect1_dropShadow_2131_3132"/>
<feOffset dy="2"/>
<feGaussianBlur stdDeviation="2"/>
<feComposite in2="hardAlpha" operator="out"/>
<feColorMatrix type="matrix" values="0 0 0 0 0 0 0 0 0 0 0 0 0 0 0 0 0 0 0.25 0"/>
<feBlend mode="normal" in2="BackgroundImageFix" result="effect1_dropShadow_2131_3132"/>
<feBlend mode="normal" in="SourceGraphic" in2="effect1_dropShadow_2131_3132" result="shape"/>
</filter>
</defs>
</svg>
