<svg width="29" height="29" viewBox="0 0 29 29" fill="none" xmlns="http://www.w3.org/2000/svg">
<path d="M14.5006 5.47197C17.3389 2.92417 21.7252 3.00875 24.4592 5.74848C27.1933 8.4882 27.2871 12.853 24.7443 15.6999L14.4992 25.961L4.25435 15.6999C1.71162 12.853 1.80666 8.4813 4.53949 5.74848C7.27541 3.01256 11.654 2.92039 14.5006 5.47197ZM22.7486 7.45554C20.9372 5.64043 18.0127 5.5668 16.1149 7.27039L14.5016 8.71842L12.8876 7.27152C10.9843 5.56555 8.06504 5.6406 6.24833 7.45731C4.44822 9.25742 4.35785 12.1405 6.01676 14.0447L14.4992 22.5406L22.982 14.0447C24.6415 12.1398 24.5515 9.26218 22.7486 7.45554Z" fill="white"/>
</svg>
