<svg width="28" height="28" viewBox="0 0 28 28" fill="none" xmlns="http://www.w3.org/2000/svg">
<path d="M14.0018 5.28329C16.7423 2.82333 20.9773 2.905 23.617 5.55025C26.2568 8.19551 26.3475 12.4098 23.8923 15.1585L14.0005 25.0658L4.10893 15.1585C1.65387 12.4098 1.74564 8.18885 4.38424 5.55025C7.02581 2.90868 11.2534 2.81968 14.0018 5.28329ZM21.9655 7.19845C20.2165 5.44593 17.3928 5.37485 15.5605 7.01968L14.0029 8.41778L12.4444 7.02078C10.6068 5.37363 7.78822 5.44609 6.03415 7.20017C4.29612 8.9382 4.20886 11.7219 5.81057 13.5604L14.0005 21.7634L22.1908 13.5604C23.7931 11.7212 23.7061 8.94279 21.9655 7.19845Z" fill="#424242"/>
</svg>
