<svg width="28" height="28" viewBox="0 0 28 28" fill="none" xmlns="http://www.w3.org/2000/svg">
<path d="M13.9997 19.833C18.2725 19.833 22.0089 21.6706 24.0413 24.4118L21.8923 25.4283C20.2384 23.468 17.3217 22.1663 13.9997 22.1663C10.6777 22.1663 7.76112 23.468 6.1071 25.4283L3.95898 24.4108C5.99156 21.6702 9.72746 19.833 13.9997 19.833ZM13.9997 2.33301C17.2214 2.33301 19.8331 4.94468 19.8331 8.16634V11.6663C19.8331 14.8033 17.357 17.3618 14.2528 17.4943L13.9997 17.4997C10.7781 17.4997 8.16639 14.888 8.16639 11.6663V8.16634C8.16639 5.02947 10.6424 2.47088 13.7467 2.3384L13.9997 2.33301ZM13.9997 4.66634C12.1357 4.66634 10.6121 6.12341 10.5057 7.96069L10.4997 8.16634V11.6663C10.4997 13.5994 12.0667 15.1663 13.9997 15.1663C15.8637 15.1663 17.3874 13.7093 17.4938 11.872L17.4997 11.6663V8.16634C17.4997 6.23335 15.9327 4.66634 13.9997 4.66634Z" fill="#424242"/>
</svg>
