<svg width="39" height="40" viewBox="0 0 39 40" fill="none" xmlns="http://www.w3.org/2000/svg">
<path d="M16.815 11.553C20.2288 11.553 23.011 14.3275 23.011 17.7507C23.011 21.1739 20.2373 23.9484 16.815 23.9484C13.3927 23.9484 10.619 21.1739 10.619 17.7507C10.619 14.3275 13.4012 11.553 16.815 11.553ZM16.815 9.8457C12.4539 9.8457 8.91211 13.3799 8.91211 17.7507C8.91211 22.113 12.4454 25.6557 16.815 25.6557C21.1846 25.6557 24.7179 22.1215 24.7179 17.7507C24.7094 13.3799 21.1761 9.8457 16.815 9.8457Z" fill="#1B1B1B"/>
<path d="M24.0322 23.2178C23.8924 23.2178 23.7526 23.2708 23.6451 23.3768L22.4406 24.5642C22.2255 24.7762 22.2255 25.1155 22.4406 25.3169L28.8609 31.6462C28.9684 31.7522 29.1082 31.8052 29.248 31.8052C29.3878 31.8052 29.5276 31.7522 29.6352 31.6462L30.8396 30.4588C31.0547 30.2467 31.0547 29.9075 30.8396 29.706L24.4194 23.3768C24.3118 23.2708 24.172 23.2178 24.0322 23.2178Z" fill="#1B1B1B"/>
<path d="M22.404 22.5059L21.5762 23.3425L23.8805 25.6474L24.7168 24.8193L22.404 22.5059Z" fill="#1B1B1B"/>
</svg>
