<svg width="101" height="36" viewBox="0 0 101 36" fill="none" xmlns="http://www.w3.org/2000/svg">
<path d="M19.34 9.72L15.7 24H12.26L10.32 16.5C10.28 16.3533 10.2267 16.1333 10.16 15.84C10.1067 15.5467 10.04 15.2267 9.96 14.88C9.89333 14.5333 9.83333 14.2067 9.78 13.9C9.72667 13.58 9.68667 13.3333 9.66 13.16C9.64667 13.3333 9.60667 13.58 9.54 13.9C9.48667 14.2067 9.42667 14.5333 9.36 14.88C9.29333 15.2133 9.22667 15.5333 9.16 15.84C9.09333 16.1333 9.04 16.36 9 16.52L7.08 24H3.64L0 9.72H2.98L4.8 17.52C4.85333 17.7467 4.91333 18.0267 4.98 18.36C5.04667 18.68 5.11333 19.02 5.18 19.38C5.24667 19.7267 5.30667 20.0667 5.36 20.4C5.42667 20.7333 5.47333 21.02 5.5 21.26C5.52667 21.0067 5.56667 20.72 5.62 20.4C5.67333 20.0667 5.73333 19.7333 5.8 19.4C5.86667 19.0533 5.92667 18.7333 5.98 18.44C6.04667 18.1333 6.10667 17.8933 6.16 17.72L8.24 9.72H11.1L13.18 17.72C13.22 17.8933 13.2733 18.1333 13.34 18.44C13.4067 18.7333 13.4733 19.0533 13.54 19.4C13.6067 19.7467 13.6667 20.0867 13.72 20.42C13.7733 20.74 13.8133 21.02 13.84 21.26C13.88 20.9267 13.94 20.5333 14.02 20.08C14.1 19.6133 14.1867 19.1467 14.28 18.68C14.3867 18.2133 14.4733 17.8267 14.54 17.52L16.36 9.72H19.34Z" fill="#1B1B1B"/>
<path d="M75.34 9.72L71.7 24H68.26L66.32 16.5C66.28 16.3533 66.2267 16.1333 66.16 15.84C66.1067 15.5467 66.04 15.2267 65.96 14.88C65.8933 14.5333 65.8333 14.2067 65.78 13.9C65.7267 13.58 65.6867 13.3333 65.66 13.16C65.6467 13.3333 65.6067 13.58 65.54 13.9C65.4867 14.2067 65.4267 14.5333 65.36 14.88C65.2933 15.2133 65.2267 15.5333 65.16 15.84C65.0933 16.1333 65.04 16.36 65 16.52L63.08 24H59.64L56 9.72H58.98L60.8 17.52C60.8533 17.7467 60.9133 18.0267 60.98 18.36C61.0467 18.68 61.1133 19.02 61.18 19.38C61.2467 19.7267 61.3067 20.0667 61.36 20.4C61.4267 20.7333 61.4733 21.02 61.5 21.26C61.5267 21.0067 61.5667 20.72 61.62 20.4C61.6733 20.0667 61.7333 19.7333 61.8 19.4C61.8667 19.0533 61.9267 18.7333 61.98 18.44C62.0467 18.1333 62.1067 17.8933 62.16 17.72L64.24 9.72H67.1L69.18 17.72C69.22 17.8933 69.2733 18.1333 69.34 18.44C69.4067 18.7333 69.4733 19.0533 69.54 19.4C69.6067 19.7467 69.6667 20.0867 69.72 20.42C69.7733 20.74 69.8133 21.02 69.84 21.26C69.88 20.9267 69.94 20.5333 70.02 20.08C70.1 19.6133 70.1867 19.1467 70.28 18.68C70.3867 18.2133 70.4733 17.8267 70.54 17.52L72.36 9.72H75.34Z" fill="#1B1B1B"/>
<path d="M22.768 15.408C22.768 15.6107 22.7573 15.8187 22.736 16.032C22.7253 16.2453 22.7093 16.4373 22.688 16.608H22.784C22.9653 16.3093 23.1947 16.064 23.472 15.872C23.7493 15.68 24.0587 15.536 24.4 15.44C24.7413 15.3333 25.0933 15.28 25.456 15.28C26.1493 15.28 26.7253 15.392 27.184 15.616C27.6533 15.8293 28.0053 16.1653 28.24 16.624C28.4747 17.0827 28.592 17.68 28.592 18.416V24H27.2V18.512C27.2 17.8187 27.0453 17.3013 26.736 16.96C26.4267 16.6187 25.9413 16.448 25.28 16.448C24.64 16.448 24.1387 16.5707 23.776 16.816C23.4133 17.0507 23.152 17.4027 22.992 17.872C22.8427 18.3307 22.768 18.896 22.768 19.568V24H21.36V11.84H22.768V15.408ZM34.5626 15.264C35.2986 15.264 35.928 15.424 36.4506 15.744C36.984 16.064 37.3893 16.5173 37.6666 17.104C37.9546 17.68 38.0986 18.3573 38.0986 19.136V19.984H32.2266C32.248 20.9547 32.4933 21.696 32.9626 22.208C33.4426 22.7093 34.1093 22.96 34.9626 22.96C35.5066 22.96 35.9866 22.912 36.4026 22.816C36.8293 22.7093 37.2666 22.56 37.7146 22.368V23.6C37.2773 23.792 36.8453 23.9307 36.4186 24.016C35.992 24.112 35.4853 24.16 34.8986 24.16C34.088 24.16 33.368 23.9947 32.7386 23.664C32.12 23.3333 31.6346 22.8427 31.2826 22.192C30.9413 21.5307 30.7706 20.7253 30.7706 19.776C30.7706 18.8373 30.9253 18.032 31.2346 17.36C31.5546 16.688 31.9973 16.1707 32.5626 15.808C33.1386 15.4453 33.8053 15.264 34.5626 15.264ZM34.5466 16.416C33.8746 16.416 33.3413 16.6347 32.9466 17.072C32.5626 17.4987 32.3333 18.096 32.2586 18.864H36.6266C36.6266 18.3733 36.552 17.9467 36.4026 17.584C36.2533 17.2213 36.024 16.9387 35.7146 16.736C35.416 16.5227 35.0266 16.416 34.5466 16.416ZM44.2819 15.264C44.4419 15.264 44.6125 15.2747 44.7939 15.296C44.9859 15.3067 45.1512 15.328 45.2899 15.36L45.1139 16.656C44.9752 16.624 44.8205 16.5973 44.6499 16.576C44.4899 16.5547 44.3352 16.544 44.1859 16.544C43.8552 16.544 43.5405 16.6133 43.2419 16.752C42.9432 16.8907 42.6765 17.088 42.4419 17.344C42.2072 17.5893 42.0205 17.888 41.8819 18.24C41.7539 18.592 41.6899 18.9867 41.6899 19.424V24H40.2819V15.424H41.4339L41.5939 16.992H41.6579C41.8392 16.672 42.0579 16.384 42.3139 16.128C42.5699 15.8613 42.8632 15.6533 43.1939 15.504C43.5245 15.344 43.8872 15.264 44.2819 15.264ZM49.8908 15.264C50.6268 15.264 51.2561 15.424 51.7788 15.744C52.3121 16.064 52.7174 16.5173 52.9948 17.104C53.2828 17.68 53.4268 18.3573 53.4268 19.136V19.984H47.5548C47.5761 20.9547 47.8214 21.696 48.2908 22.208C48.7708 22.7093 49.4374 22.96 50.2908 22.96C50.8348 22.96 51.3148 22.912 51.7308 22.816C52.1574 22.7093 52.5948 22.56 53.0428 22.368V23.6C52.6054 23.792 52.1734 23.9307 51.7468 24.016C51.3201 24.112 50.8134 24.16 50.2268 24.16C49.4161 24.16 48.6961 23.9947 48.0668 23.664C47.4481 23.3333 46.9628 22.8427 46.6108 22.192C46.2694 21.5307 46.0988 20.7253 46.0988 19.776C46.0988 18.8373 46.2534 18.032 46.5628 17.36C46.8828 16.688 47.3254 16.1707 47.8908 15.808C48.4668 15.4453 49.1334 15.264 49.8908 15.264ZM49.8748 16.416C49.2028 16.416 48.6694 16.6347 48.2748 17.072C47.8908 17.4987 47.6614 18.096 47.5868 18.864H51.9548C51.9548 18.3733 51.8801 17.9467 51.7308 17.584C51.5814 17.2213 51.3521 16.9387 51.0428 16.736C50.7441 16.5227 50.3548 16.416 49.8748 16.416Z" fill="#1B1B1B"/>
<path d="M80.672 15.264C81.408 15.264 82.0373 15.424 82.56 15.744C83.0933 16.064 83.4987 16.5173 83.776 17.104C84.064 17.68 84.208 18.3573 84.208 19.136V19.984H78.336C78.3573 20.9547 78.6027 21.696 79.072 22.208C79.552 22.7093 80.2187 22.96 81.072 22.96C81.616 22.96 82.096 22.912 82.512 22.816C82.9387 22.7093 83.376 22.56 83.824 22.368V23.6C83.3867 23.792 82.9547 23.9307 82.528 24.016C82.1013 24.112 81.5947 24.16 81.008 24.16C80.1973 24.16 79.4773 23.9947 78.848 23.664C78.2293 23.3333 77.744 22.8427 77.392 22.192C77.0507 21.5307 76.88 20.7253 76.88 19.776C76.88 18.8373 77.0347 18.032 77.344 17.36C77.664 16.688 78.1067 16.1707 78.672 15.808C79.248 15.4453 79.9147 15.264 80.672 15.264ZM80.656 16.416C79.984 16.416 79.4507 16.6347 79.056 17.072C78.672 17.4987 78.4427 18.096 78.368 18.864H82.736C82.736 18.3733 82.6613 17.9467 82.512 17.584C82.3627 17.2213 82.1333 16.9387 81.824 16.736C81.5253 16.5227 81.136 16.416 80.656 16.416ZM89.6393 15.28C90.6846 15.28 91.4579 15.5093 91.9593 15.968C92.4606 16.4267 92.7113 17.1573 92.7113 18.16V24H91.6873L91.4153 22.784H91.3513C91.1059 23.0933 90.8499 23.3547 90.5833 23.568C90.3273 23.7707 90.0286 23.92 89.6873 24.016C89.3566 24.112 88.9513 24.16 88.4713 24.16C87.9593 24.16 87.4953 24.0693 87.0793 23.888C86.6739 23.7067 86.3539 23.4293 86.1193 23.056C85.8846 22.672 85.7673 22.192 85.7673 21.616C85.7673 20.7627 86.1033 20.1067 86.7753 19.648C87.4473 19.1787 88.4819 18.9227 89.8793 18.88L91.3353 18.832V18.32C91.3353 17.6053 91.1806 17.1093 90.8713 16.832C90.5619 16.5547 90.1246 16.416 89.5593 16.416C89.1113 16.416 88.6846 16.4853 88.2793 16.624C87.8739 16.752 87.4953 16.9013 87.1432 17.072L86.7113 16.016C87.0846 15.8133 87.5273 15.6427 88.0393 15.504C88.5513 15.3547 89.0846 15.28 89.6393 15.28ZM90.0553 19.856C88.9886 19.8987 88.2473 20.0693 87.8313 20.368C87.4259 20.6667 87.2233 21.088 87.2233 21.632C87.2233 22.112 87.3673 22.464 87.6553 22.688C87.9539 22.912 88.3326 23.024 88.7913 23.024C89.5166 23.024 90.1193 22.8267 90.5993 22.432C91.0793 22.0267 91.3193 21.408 91.3193 20.576V19.808L90.0553 19.856ZM99.36 15.264C99.52 15.264 99.6907 15.2747 99.872 15.296C100.064 15.3067 100.229 15.328 100.368 15.36L100.192 16.656C100.053 16.624 99.8987 16.5973 99.728 16.576C99.568 16.5547 99.4133 16.544 99.264 16.544C98.9333 16.544 98.6187 16.6133 98.32 16.752C98.0213 16.8907 97.7547 17.088 97.52 17.344C97.2853 17.5893 97.0987 17.888 96.96 18.24C96.832 18.592 96.768 18.9867 96.768 19.424V24H95.36V15.424H96.512L96.672 16.992H96.736C96.9173 16.672 97.136 16.384 97.392 16.128C97.648 15.8613 97.9413 15.6533 98.272 15.504C98.6027 15.344 98.9653 15.264 99.36 15.264Z" fill="#1B1B1B"/>
</svg>
