<svg width="99" height="36" viewBox="0 0 99 36" fill="none" xmlns="http://www.w3.org/2000/svg">
<path d="M19.34 9.72L15.7 24H12.26L10.32 16.5C10.28 16.3533 10.2267 16.1333 10.16 15.84C10.1067 15.5467 10.04 15.2267 9.96 14.88C9.89333 14.5333 9.83333 14.2067 9.78 13.9C9.72667 13.58 9.68667 13.3333 9.66 13.16C9.64667 13.3333 9.60667 13.58 9.54 13.9C9.48667 14.2067 9.42667 14.5333 9.36 14.88C9.29333 15.2133 9.22667 15.5333 9.16 15.84C9.09333 16.1333 9.04 16.36 9 16.52L7.08 24H3.64L0 9.72H2.98L4.8 17.52C4.85333 17.7467 4.91333 18.0267 4.98 18.36C5.04667 18.68 5.11333 19.02 5.18 19.38C5.24667 19.7267 5.30667 20.0667 5.36 20.4C5.42667 20.7333 5.47333 21.02 5.5 21.26C5.52667 21.0067 5.56667 20.72 5.62 20.4C5.67333 20.0667 5.73333 19.7333 5.8 19.4C5.86667 19.0533 5.92667 18.7333 5.98 18.44C6.04667 18.1333 6.10667 17.8933 6.16 17.72L8.24 9.72H11.1L13.18 17.72C13.22 17.8933 13.2733 18.1333 13.34 18.44C13.4067 18.7333 13.4733 19.0533 13.54 19.4C13.6067 19.7467 13.6667 20.0867 13.72 20.42C13.7733 20.74 13.8133 21.02 13.84 21.26C13.88 20.9267 13.94 20.5333 14.02 20.08C14.1 19.6133 14.1867 19.1467 14.28 18.68C14.3867 18.2133 14.4733 17.8267 14.54 17.52L16.36 9.72H19.34Z" fill="#1B1B1B"/>
<path d="M22.768 15.408C22.768 15.6107 22.7573 15.8187 22.736 16.032C22.7253 16.2453 22.7093 16.4373 22.688 16.608H22.784C22.9653 16.3093 23.1947 16.064 23.472 15.872C23.7493 15.68 24.0587 15.536 24.4 15.44C24.7413 15.3333 25.0933 15.28 25.456 15.28C26.1493 15.28 26.7253 15.392 27.184 15.616C27.6533 15.8293 28.0053 16.1653 28.24 16.624C28.4747 17.0827 28.592 17.68 28.592 18.416V24H27.2V18.512C27.2 17.8187 27.0453 17.3013 26.736 16.96C26.4267 16.6187 25.9413 16.448 25.28 16.448C24.64 16.448 24.1387 16.5707 23.776 16.816C23.4133 17.0507 23.152 17.4027 22.992 17.872C22.8427 18.3307 22.768 18.896 22.768 19.568V24H21.36V11.84H22.768V15.408ZM34.5626 15.264C35.2986 15.264 35.928 15.424 36.4506 15.744C36.984 16.064 37.3893 16.5173 37.6666 17.104C37.9546 17.68 38.0986 18.3573 38.0986 19.136V19.984H32.2266C32.248 20.9547 32.4933 21.696 32.9626 22.208C33.4426 22.7093 34.1093 22.96 34.9626 22.96C35.5066 22.96 35.9866 22.912 36.4026 22.816C36.8293 22.7093 37.2666 22.56 37.7146 22.368V23.6C37.2773 23.792 36.8453 23.9307 36.4186 24.016C35.992 24.112 35.4853 24.16 34.8986 24.16C34.088 24.16 33.368 23.9947 32.7386 23.664C32.12 23.3333 31.6346 22.8427 31.2826 22.192C30.9413 21.5307 30.7706 20.7253 30.7706 19.776C30.7706 18.8373 30.9253 18.032 31.2346 17.36C31.5546 16.688 31.9973 16.1707 32.5626 15.808C33.1386 15.4453 33.8053 15.264 34.5626 15.264ZM34.5466 16.416C33.8746 16.416 33.3413 16.6347 32.9466 17.072C32.5626 17.4987 32.3333 18.096 32.2586 18.864H36.6266C36.6266 18.3733 36.552 17.9467 36.4026 17.584C36.2533 17.2213 36.024 16.9387 35.7146 16.736C35.416 16.5227 35.0266 16.416 34.5466 16.416ZM44.2819 15.264C44.4419 15.264 44.6125 15.2747 44.7939 15.296C44.9859 15.3067 45.1512 15.328 45.2899 15.36L45.1139 16.656C44.9752 16.624 44.8205 16.5973 44.6499 16.576C44.4899 16.5547 44.3352 16.544 44.1859 16.544C43.8552 16.544 43.5405 16.6133 43.2419 16.752C42.9432 16.8907 42.6765 17.088 42.4419 17.344C42.2072 17.5893 42.0205 17.888 41.8819 18.24C41.7539 18.592 41.6899 18.9867 41.6899 19.424V24H40.2819V15.424H41.4339L41.5939 16.992H41.6579C41.8392 16.672 42.0579 16.384 42.3139 16.128C42.5699 15.8613 42.8632 15.6533 43.1939 15.504C43.5245 15.344 43.8872 15.264 44.2819 15.264ZM49.8908 15.264C50.6268 15.264 51.2561 15.424 51.7788 15.744C52.3121 16.064 52.7174 16.5173 52.9948 17.104C53.2828 17.68 53.4268 18.3573 53.4268 19.136V19.984H47.5548C47.5761 20.9547 47.8214 21.696 48.2908 22.208C48.7708 22.7093 49.4374 22.96 50.2908 22.96C50.8348 22.96 51.3148 22.912 51.7308 22.816C52.1574 22.7093 52.5948 22.56 53.0428 22.368V23.6C52.6054 23.792 52.1734 23.9307 51.7468 24.016C51.3201 24.112 50.8134 24.16 50.2268 24.16C49.4161 24.16 48.6961 23.9947 48.0668 23.664C47.4481 23.3333 46.9628 22.8427 46.6108 22.192C46.2694 21.5307 46.0988 20.7253 46.0988 19.776C46.0988 18.8373 46.2534 18.032 46.5628 17.36C46.8828 16.688 47.3254 16.1707 47.8908 15.808C48.4668 15.4453 49.1334 15.264 49.8908 15.264ZM49.8748 16.416C49.2028 16.416 48.6694 16.6347 48.2748 17.072C47.8908 17.4987 47.6614 18.096 47.5868 18.864H51.9548C51.9548 18.3733 51.8801 17.9467 51.7308 17.584C51.5814 17.2213 51.3521 16.9387 51.0428 16.736C50.7441 16.5227 50.3548 16.416 49.8748 16.416ZM73.8783 12.576L70.9663 24H68.2143L66.6623 18C66.6303 17.8827 66.5876 17.7067 66.5343 17.472C66.4916 17.2373 66.4383 16.9813 66.3743 16.704C66.3209 16.4267 66.2729 16.1653 66.2303 15.92C66.1876 15.664 66.1556 15.4667 66.1343 15.328C66.1236 15.4667 66.0916 15.664 66.0383 15.92C65.9956 16.1653 65.9476 16.4267 65.8943 16.704C65.8409 16.9707 65.7876 17.2267 65.7343 17.472C65.6809 17.7067 65.6383 17.888 65.6063 18.016L64.0703 24H61.3183L58.4062 12.576H60.7903L62.2463 18.816C62.2889 18.9973 62.3369 19.2213 62.3903 19.488C62.4436 19.744 62.4969 20.016 62.5503 20.304C62.6036 20.5813 62.6516 20.8533 62.6943 21.12C62.7476 21.3867 62.7849 21.616 62.8063 21.808C62.8276 21.6053 62.8596 21.376 62.9023 21.12C62.9449 20.8533 62.9929 20.5867 63.0463 20.32C63.0996 20.0427 63.1476 19.7867 63.1903 19.552C63.2436 19.3067 63.2916 19.1147 63.3343 18.976L64.9983 12.576H67.2863L68.9503 18.976C68.9823 19.1147 69.0249 19.3067 69.0783 19.552C69.1316 19.7867 69.1849 20.0427 69.2383 20.32C69.2916 20.5973 69.3396 20.8693 69.3823 21.136C69.4249 21.392 69.4569 21.616 69.4783 21.808C69.5103 21.5413 69.5583 21.2267 69.6223 20.864C69.6863 20.4907 69.7556 20.1173 69.8303 19.744C69.9156 19.3707 69.9849 19.0613 70.0383 18.816L71.4943 12.576H73.8783ZM78.547 15.264C79.283 15.264 79.9123 15.424 80.435 15.744C80.9683 16.064 81.3737 16.5173 81.651 17.104C81.939 17.68 82.083 18.3573 82.083 19.136V19.984H76.211C76.2323 20.9547 76.4777 21.696 76.947 22.208C77.427 22.7093 78.0937 22.96 78.947 22.96C79.491 22.96 79.971 22.912 80.387 22.816C80.8137 22.7093 81.251 22.56 81.699 22.368V23.6C81.2617 23.792 80.8297 23.9307 80.403 24.016C79.9763 24.112 79.4697 24.16 78.883 24.16C78.0723 24.16 77.3523 23.9947 76.723 23.664C76.1043 23.3333 75.619 22.8427 75.267 22.192C74.9257 21.5307 74.755 20.7253 74.755 19.776C74.755 18.8373 74.9097 18.032 75.219 17.36C75.539 16.688 75.9817 16.1707 76.547 15.808C77.123 15.4453 77.7897 15.264 78.547 15.264ZM78.531 16.416C77.859 16.416 77.3257 16.6347 76.931 17.072C76.547 17.4987 76.3177 18.096 76.243 18.864H80.611C80.611 18.3733 80.5363 17.9467 80.387 17.584C80.2377 17.2213 80.0083 16.9387 79.699 16.736C79.4003 16.5227 79.011 16.416 78.531 16.416ZM87.5143 15.28C88.5596 15.28 89.3329 15.5093 89.8343 15.968C90.3356 16.4267 90.5863 17.1573 90.5863 18.16V24H89.5623L89.2903 22.784H89.2263C88.9809 23.0933 88.7249 23.3547 88.4583 23.568C88.2023 23.7707 87.9036 23.92 87.5623 24.016C87.2316 24.112 86.8263 24.16 86.3463 24.16C85.8343 24.16 85.3703 24.0693 84.9543 23.888C84.5489 23.7067 84.2289 23.4293 83.9943 23.056C83.7596 22.672 83.6423 22.192 83.6423 21.616C83.6423 20.7627 83.9783 20.1067 84.6503 19.648C85.3223 19.1787 86.3569 18.9227 87.7543 18.88L89.2103 18.832V18.32C89.2103 17.6053 89.0556 17.1093 88.7463 16.832C88.4369 16.5547 87.9996 16.416 87.4343 16.416C86.9863 16.416 86.5596 16.4853 86.1543 16.624C85.7489 16.752 85.3703 16.9013 85.0182 17.072L84.5863 16.016C84.9596 15.8133 85.4023 15.6427 85.9143 15.504C86.4263 15.3547 86.9596 15.28 87.5143 15.28ZM87.9303 19.856C86.8636 19.8987 86.1223 20.0693 85.7063 20.368C85.3009 20.6667 85.0983 21.088 85.0983 21.632C85.0983 22.112 85.2423 22.464 85.5303 22.688C85.8289 22.912 86.2076 23.024 86.6663 23.024C87.3916 23.024 87.9943 22.8267 88.4743 22.432C88.9543 22.0267 89.1943 21.408 89.1943 20.576V19.808L87.9303 19.856ZM97.235 15.264C97.395 15.264 97.5657 15.2747 97.747 15.296C97.939 15.3067 98.1043 15.328 98.243 15.36L98.067 16.656C97.9283 16.624 97.7737 16.5973 97.603 16.576C97.443 16.5547 97.2883 16.544 97.139 16.544C96.8083 16.544 96.4937 16.6133 96.195 16.752C95.8963 16.8907 95.6297 17.088 95.395 17.344C95.1603 17.5893 94.9737 17.888 94.835 18.24C94.707 18.592 94.643 18.9867 94.643 19.424V24H93.235V15.424H94.387L94.547 16.992H94.611C94.7923 16.672 95.011 16.384 95.267 16.128C95.523 15.8613 95.8163 15.6533 96.147 15.504C96.4777 15.344 96.8403 15.264 97.235 15.264Z" fill="#1B1B1B"/>
</svg>
